ISO-10303-21;
HEADER;
FILE_DESCRIPTION(('ViewDefinition [CoordinationView]'),'2;1');
FILE_NAME('simple_house.ifc','2026-01-01T00:00:00',('AEC Fixture'),('AEC Intelligence'),'AEC Fixture Generator','AEC Intelligence','');
FILE_SCHEMA(('IFC4'));
ENDSEC;
DATA;
#1=IFCPROJECT('00000000000000004=',$,'Simple House Project',$,$,$,$,$,$);
#2=IFCSITE('00000000000000008=',$,'Simple House Site',$,$,$,$,$,.ELEMENT.,$,$,$,$,$);
#3=IFCBUILDING('0000000000000000C=',$,'Simple House Building',$,$,$,$,$,.ELEMENT.,$,$,$);
#4=IFCBUILDINGSTOREY('0000000000000000G=',$,'Ground Floor',$,$,$,$,$,.ELEMENT.,0.);
#5=IFCSPACE('0000000000000000K=',$,'Living Room',$,$,$,$,$,.ELEMENT.,.INTERNAL.,$);
#6=IFCWALL('0000000000000000O=',$,'External Wall',$,$,$,$,$,.STANDARD.);
#7=IFCDOOR('0000000000000000S=',$,'Main Door',$,$,$,$,$,2100.,900.,.DOOR.,$,$);
#8=IFCWINDOW('0000000000000000W=',$,'Living Window',$,$,$,$,$,1200.,1500.,.WINDOW.,$,$);
#9=IFCRELAGGREGATES('000000000000000G4=',$,$,$,#1,(#2));
#10=IFCRELAGGREGATES('000000000000000G8=',$,$,$,#2,(#3));
#11=IFCRELAGGREGATES('000000000000000GC=',$,$,$,#3,(#4));
#12=IFCRELAGGREGATES('000000000000000GG=',$,$,$,#4,(#5));
#13=IFCRELCONTAINEDINSPATIALSTRUCTURE('000000000000000GK=',$,$,$,(#6,#7,#8),#4);
ENDSEC;
END-ISO-10303-21;
