0
SECTION
2
HEADER
9
$ACADVER
1
AC1015
9
$INSUNITS
70
4
0
ENDSEC
0
SECTION
2
TABLES
0
TABLE
2
LAYER
70
5
0
LAYER
2
0
70
0
62
7
6
CONTINUOUS
0
LAYER
2
A-WALL
70
0
62
1
6
CONTINUOUS
0
LAYER
2
A-DOOR
70
0
62
2
6
CONTINUOUS
0
LAYER
2
A-WINDOW
70
0
62
3
6
CONTINUOUS
0
LAYER
2
A-COLS
70
0
62
4
6
CONTINUOUS
0
ENDTAB
0
ENDSEC
0
SECTION
2
ENTITIES
0
LWPOLYLINE
5
A01
100
AcDbEntity
8
A-WALL
100
AcDbPolyline
90
4
70
1
10
0
20
0
10
10000
20
0
10
10000
20
7000
10
0
20
7000
0
LWPOLYLINE
5
A02
100
AcDbEntity
8
A-WALL
100
AcDbPolyline
90
4
70
1
10
300
20
300
10
9700
20
300
10
9700
20
6700
10
300
20
6700
0
LINE
5
A03
100
AcDbEntity
8
A-DOOR
100
AcDbLine
10
4500
20
0
11
5500
21
0
0
ARC
5
A04
100
AcDbEntity
8
A-DOOR
100
AcDbCircle
10
4500
20
0
40
1000
50
0
51
90
100
AcDbArc
0
LINE
5
A07
100
AcDbEntity
8
A-WINDOW
100
AcDbLine
10
2000
20
0
11
3500
21
0
0
CIRCLE
5
A05
100
AcDbEntity
8
A-COLS
100
AcDbCircle
10
1500
20
1500
40
150
0
TEXT
5
A06
100
AcDbEntity
8
0
100
AcDbText
10
500
20
3500
40
250
1
LIVING ROOM
0
ENDSEC
0
EOF
